<svg width="38" height="38" viewBox="0 0 38 38" fill="none" xmlns="http://www.w3.org/2000/svg">
<path d="M33.8559 15.5005H32.6125V15.4364H18.7197V21.611H27.4436C26.1708 25.2054 22.7509 27.7856 18.7197 27.7856C13.6048 27.7856 9.45781 23.6386 9.45781 18.5237C9.45781 13.4089 13.6048 9.26186 18.7197 9.26186C21.0807 9.26186 23.2287 10.1525 24.8641 11.6074L29.2303 7.24123C26.4734 4.67183 22.7856 3.08728 18.7197 3.08728C10.1949 3.08728 3.28323 9.99895 3.28323 18.5237C3.28323 27.0485 10.1949 33.9602 18.7197 33.9602C27.2444 33.9602 34.1561 27.0485 34.1561 18.5237C34.1561 17.4887 34.0496 16.4784 33.8559 15.5005Z" fill="#FFC107"/>
<path d="M5.06306 11.3388L10.1347 15.0582C11.507 11.6607 14.8305 9.26186 18.7197 9.26186C21.0807 9.26186 23.2287 10.1525 24.8641 11.6074L29.2303 7.24123C26.4734 4.67183 22.7856 3.08728 18.7197 3.08728C12.7905 3.08728 7.64866 6.43467 5.06306 11.3388Z" fill="#FF3D00"/>
<path d="M18.7197 33.9602C22.7069 33.9602 26.3298 32.4343 29.069 29.9529L24.2915 25.9101C22.6896 27.1283 20.7322 27.7872 18.7197 27.7856C14.7047 27.7856 11.2955 25.2255 10.0112 21.6527L4.97739 25.5311C7.53212 30.5302 12.7203 33.9602 18.7197 33.9602Z" fill="#4CAF50"/>
<path d="M33.8559 15.5005H32.6125V15.4365H18.7197V21.611H27.4436C26.8348 23.3217 25.7381 24.8166 24.2891 25.9109L24.2915 25.9093L29.069 29.9521C28.731 30.2593 34.1561 26.242 34.1561 18.5237C34.1561 17.4887 34.0496 16.4784 33.8559 15.5005Z" fill="#1976D2"/>
</svg>
