<svg width="35" height="35" viewBox="0 0 35 35" fill="none" xmlns="http://www.w3.org/2000/svg">
<circle cx="17.5" cy="17.5" r="16.75" stroke="#FCA702" stroke-width="1.5"/>
<path d="M19.0276 8C20.1526 8.003 20.7236 8.009 21.2166 8.023L21.4106 8.03C21.6346 8.038 21.8556 8.048 22.1226 8.06C23.1866 8.11 23.9126 8.278 24.5496 8.525C25.2096 8.779 25.7656 9.123 26.3216 9.678C26.8301 10.1779 27.2236 10.7826 27.4746 11.45C27.7216 12.087 27.8896 12.813 27.9396 13.878C27.9516 14.144 27.9616 14.365 27.9696 14.59L27.9756 14.784C27.9906 15.276 27.9966 15.847 27.9986 16.972L27.9996 17.718V19.028C28.0021 19.7574 27.9944 20.4868 27.9766 21.216L27.9706 21.41C27.9626 21.635 27.9526 21.856 27.9406 22.122C27.8906 23.187 27.7206 23.912 27.4746 24.55C27.2243 25.2178 26.8307 25.8226 26.3216 26.322C25.8216 26.8303 25.2169 27.2238 24.5496 27.475C23.9126 27.722 23.1866 27.89 22.1226 27.94C21.8853 27.9512 21.648 27.9612 21.4106 27.97L21.2166 27.976C20.7236 27.99 20.1526 27.997 19.0276 27.999L18.2816 28H16.9726C16.2429 28.0025 15.5131 27.9949 14.7836 27.977L14.5896 27.971C14.3522 27.962 14.1149 27.9517 13.8776 27.94C12.8136 27.89 12.0876 27.722 11.4496 27.475C10.7823 27.2244 10.1778 26.8308 9.6786 26.322C9.16965 25.8223 8.77582 25.2176 8.5246 24.55C8.2776 23.913 8.1096 23.187 8.0596 22.122C8.04846 21.8847 8.03846 21.6474 8.0296 21.41L8.0246 21.216C8.00617 20.4868 7.99784 19.7574 7.9996 19.028V16.972C7.99681 16.2426 8.00414 15.5132 8.0216 14.784L8.0286 14.59C8.0366 14.365 8.0466 14.144 8.0586 13.878C8.1086 12.813 8.2766 12.088 8.5236 11.45C8.77471 10.7819 9.16932 10.177 9.6796 9.678C10.1787 9.16947 10.7827 8.77599 11.4496 8.525C12.0876 8.278 12.8126 8.11 13.8776 8.06C14.1436 8.048 14.3656 8.038 14.5896 8.03L14.7836 8.024C15.5128 8.00623 16.2422 7.99857 16.9716 8.001L19.0276 8ZM17.9996 13C16.6735 13 15.4017 13.5268 14.4641 14.4645C13.5264 15.4021 12.9996 16.6739 12.9996 18C12.9996 19.3261 13.5264 20.5979 14.4641 21.5355C15.4017 22.4732 16.6735 23 17.9996 23C19.3257 23 20.5975 22.4732 21.5351 21.5355C22.4728 20.5979 22.9996 19.3261 22.9996 18C22.9996 16.6739 22.4728 15.4021 21.5351 14.4645C20.5975 13.5268 19.3257 13 17.9996 13ZM17.9996 15C18.3936 14.9999 18.7837 15.0775 19.1477 15.2282C19.5117 15.3789 19.8424 15.5998 20.1211 15.8783C20.3997 16.1569 20.6207 16.4875 20.7715 16.8515C20.9224 17.2154 21 17.6055 21.0001 17.9995C21.0002 18.3935 20.9226 18.7836 20.7719 19.1476C20.6212 19.5116 20.4003 19.8423 20.1218 20.121C19.8432 20.3996 19.5126 20.6206 19.1486 20.7714C18.7847 20.9223 18.3946 20.9999 18.0006 21C17.205 21 16.4419 20.6839 15.8793 20.1213C15.3167 19.5587 15.0006 18.7956 15.0006 18C15.0006 17.2044 15.3167 16.4413 15.8793 15.8787C16.4419 15.3161 17.205 15 18.0006 15M23.2506 11.5C22.9191 11.5 22.6011 11.6317 22.3667 11.8661C22.1323 12.1005 22.0006 12.4185 22.0006 12.75C22.0006 13.0815 22.1323 13.3995 22.3667 13.6339C22.6011 13.8683 22.9191 14 23.2506 14C23.5821 14 23.9001 13.8683 24.1345 13.6339C24.3689 13.3995 24.5006 13.0815 24.5006 12.75C24.5006 12.4185 24.3689 12.1005 24.1345 11.8661C23.9001 11.6317 23.5821 11.5 23.2506 11.5Z" fill="white"/>
</svg>
