<svg width="18" height="19" viewBox="0 0 18 19" fill="none" xmlns="http://www.w3.org/2000/svg">
<path d="M16 9.95001C16 8.00001 15.3208 6.34585 13.9625 4.98751C12.6042 3.62918 10.95 2.95001 9 2.95001V0.950012C10.25 0.950012 11.4208 1.18751 12.5125 1.66251C13.6042 2.13751 14.5542 2.77918 15.3625 3.58751C16.1708 4.39585 16.8125 5.34585 17.2875 6.43751C17.7625 7.52918 18 8.70001 18 9.95001H16ZM12 9.95001C12 9.11668 11.7083 8.40835 11.125 7.82501C10.5417 7.24168 9.83333 6.95001 9 6.95001V4.95001C10.3833 4.95001 11.5625 5.43751 12.5375 6.41251C13.5125 7.38751 14 8.56668 14 9.95001H12ZM16.95 19C14.8667 19 12.8083 18.5458 10.775 17.6375C8.74167 16.7292 6.89167 15.4417 5.225 13.775C3.55833 12.1083 2.27083 10.2583 1.3625 8.22501C0.454167 6.19168 0 4.13335 0 2.05001C0 1.75001 0.1 1.50001 0.3 1.30001C0.5 1.10001 0.75 1.00001 1.05 1.00001H5.1C5.33333 1.00001 5.54167 1.07918 5.725 1.23751C5.90833 1.39585 6.01667 1.58335 6.05 1.80001L6.7 5.30001C6.73333 5.56668 6.725 5.79168 6.675 5.97501C6.625 6.15835 6.53333 6.31668 6.4 6.45001L3.975 8.90001C4.30833 9.51668 4.70417 10.1125 5.1625 10.6875C5.62083 11.2625 6.125 11.8167 6.675 12.35C7.19167 12.8667 7.73333 13.3458 8.3 13.7875C8.86667 14.2292 9.46667 14.6333 10.1 15L12.45 12.65C12.6 12.5 12.7958 12.3875 13.0375 12.3125C13.2792 12.2375 13.5167 12.2167 13.75 12.25L17.2 12.95C17.4333 13.0167 17.625 13.1375 17.775 13.3125C17.925 13.4875 18 13.6833 18 13.9V17.95C18 18.25 17.9 18.5 17.7 18.7C17.5 18.9 17.25 19 16.95 19Z" fill="#FCA702"/>
</svg>
