<svg width="35" height="35" viewBox="0 0 35 35" fill="none" xmlns="http://www.w3.org/2000/svg">
<circle cx="17.5" cy="17.5" r="16.75" stroke="#FCA702" stroke-width="1.5"/>
<path d="M28.46 12C27.69 12.35 26.86 12.58 26 12.69C26.88 12.16 27.56 11.32 27.88 10.31C27.05 10.81 26.13 11.16 25.16 11.36C24.37 10.5 23.26 10 22 10C19.65 10 17.73 11.92 17.73 14.29C17.73 14.63 17.77 14.96 17.84 15.27C14.28 15.09 11.11 13.38 9.00004 10.79C8.63004 11.42 8.42004 12.16 8.42004 12.94C8.42004 14.43 9.17004 15.75 10.33 16.5C9.62004 16.5 8.96004 16.3 8.38004 16V16.03C8.38004 18.11 9.86004 19.85 11.82 20.24C11.1909 20.4129 10.5301 20.4369 9.89004 20.31C10.1616 21.1625 10.6936 21.9084 11.4111 22.4429C12.1285 22.9775 12.9955 23.2737 13.89 23.29C12.3737 24.4905 10.494 25.1394 8.56004 25.13C8.22004 25.13 7.88004 25.11 7.54004 25.07C9.44004 26.29 11.7 27 14.12 27C22 27 26.33 20.46 26.33 14.79C26.33 14.6 26.33 14.42 26.32 14.23C27.16 13.63 27.88 12.87 28.46 12Z" fill="white"/>
</svg>
